<svg width="797.000000" height="170.000000" viewBox="0 0 797 170" fill="none" xmlns="http://www.w3.org/2000/svg" xmlns:xlink="http://www.w3.org/1999/xlink">
	<desc>
			Created with Pixso.
	</desc>
	<defs/>
	<path id="path" d="M400.33 0.93C399.93 1.86 399.8 30.26 399.93 64L400.33 125.33L409.4 125.73L418.33 126.13L418.33 62.66L418.33 -0.67L409.66 -0.67C403.93 -0.67 400.73 -0.14 400.33 0.93Z" fill="#000000" fill-opacity="1.000000" fill-rule="nonzero"/>
	<path id="path" d="M439.66 15.06C434.86 19.86 434.46 25.33 438.33 30.26C445.13 38.93 459.66 33.46 459.66 22.26C459.66 18.13 453.93 12.66 448.73 11.73C444.46 11.06 443.26 11.6 439.66 15.06Z" fill="#000000" fill-opacity="1.000000" fill-rule="nonzero"/>
	<path id="path" d="M19.46 21.43C-15.01 57.93 1.5 106.01 26.5 139.49C43.5 158.5 160.49 204.97 160.49 119.94C160.49 88.56 166 42.43 134.5 21.43C107 5.93 43.51 -4.89 19.46 21.43Z" fill="#FFCB00" fill-opacity="1.000000" fill-rule="nonzero"/>
	<path id="path" d="M663.93 66.26C664.33 111.2 664.46 114.93 666.86 118.4C671.13 124.8 675.26 126 692.33 126L707.66 126L707.66 117.33L707.66 108.66L695 108.66L682.33 108.66L682.33 86L682.33 63.46L695.4 63.06L708.33 62.66L708.73 54.26L709.13 46L695.66 46L682.33 46L682.33 32L682.33 18L673 18L663.53 18L663.93 66.26Z" fill="#000000" fill-opacity="1.000000" fill-rule="nonzero"/>
	<path id="path" d="M326.73 44.26C319.13 46.93 308.33 56.8 303.93 65.2C300.86 71.06 300.33 73.6 300.33 83.33C300.33 93.06 300.86 95.73 304.06 102.26C308.46 111.2 316.06 118.26 326.2 122.93C332.33 125.86 334.6 126.26 344.2 125.73C362.73 124.66 376.33 114.93 382.06 98.26L383.53 94L374.6 94C366.06 94 365.4 94.26 363.26 97.86C361.93 100.26 357.93 103.33 353.53 105.46C347.4 108.53 345.13 108.93 338.86 108.26C330.6 107.46 323.8 103.2 319.53 96.13C316.46 91.2 316.06 79.6 318.86 74.26C323.13 66.13 333.8 59.33 342.6 59.33C348.6 59.33 357.8 64.13 361.8 69.46C365.13 73.73 365.66 74 373.8 74C383.4 74 383.66 73.6 379.8 65.33C376.33 57.73 365.66 48.26 356.6 44.8C347.53 41.46 335.13 41.2 326.73 44.26Z" fill="#000000" fill-opacity="1.000000" fill-rule="nonzero"/>
	<path id="path" d="M503.8 44C487.13 48.66 477.53 59.6 474.2 77.33C470.73 96.53 480.2 115.33 497.66 123.46C507.13 128 520.46 128.66 530.73 125.2C537.66 122.8 549.4 113.06 552.46 107.2L554.46 103.33L545.93 103.33C539 103.33 535.93 104.13 529.93 107.33C518.73 113.33 507.4 112.4 499.26 104.8C495.8 101.73 491.66 95.33 491.66 93.33C491.66 92.93 506.73 92.66 525 92.66L558.33 92.66L558.33 84.93C558.33 72.66 555.13 65.2 545.8 55.86C533.93 44 519 39.86 503.8 44ZM525.8 61.86C530.59 64 533.93 67.33 537.53 73.6C538.33 74.93 533.4 75.33 515.13 75.33C501.66 75.33 491.66 74.8 491.66 74.13C491.66 71.73 498.73 64.53 503.53 62C509.66 58.8 518.86 58.66 525.8 61.86Z" fill="#000000" fill-opacity="1.000000" fill-rule="nonzero"/>
	<path id="path" d="M602.06 44C598.59 45.2 595.4 46.66 595 47.33C593.8 49.33 591.66 48.93 591.66 46.66C591.66 45.06 589.8 44.66 583 44.66L574.33 44.66L574.59 84.93L575 125.33L583.4 125.73L591.66 126.13L591.66 101.06C591.66 77.6 591.93 75.46 594.73 70C600.59 58.13 614.2 56 623.53 65.2L628.33 70L629 97.73L629.66 125.33L638.06 125.73L646.33 126.13L646.33 98.53C646.33 67.33 645.53 63.2 638.06 54.66C629 44.26 614.59 40.13 602.06 44Z" fill="#000000" fill-opacity="1.000000" fill-rule="nonzero"/>
	<path id="path" d="M98.06 44.66C96.33 45.73 85.39 62.13 53.26 112.26C51.53 115.06 52.06 116.4 61.93 132C67.66 141.06 72.99 148.66 73.66 148.66C75.53 148.66 141.13 45.86 140.19 44.53C139.26 42.93 100.86 43.06 98.06 44.66Z" fill="#000000" fill-opacity="1.000000" fill-rule="nonzero"/>
	<path id="path" d="M33.26 46.4C34.06 50 56.33 83.33 57.93 83.33C59.53 83.33 82.33 48.8 82.33 46.26C82.33 45.06 75.66 44.66 57.53 44.66C37.66 44.66 32.86 45.06 33.26 46.4Z" fill="#000000" fill-opacity="1.000000" fill-rule="nonzero"/>
	<path id="path" d="M224.54 80.73C224.54 81.53 229.61 92.06 235.87 104.06C242.14 116.06 247.21 126.33 247.21 126.86C247.21 127.39 242.54 127.66 236.81 127.39L226.54 127L198.27 70.99C182.67 40.19 188.01 50.4 188.01 49.74C187.87 49.2 192.54 48.8 198.27 48.8L208.54 48.8L213.61 58.99L224.54 80.73Z" fill="#000000" fill-opacity="1.000000" fill-rule="evenodd"/>
	<path id="path" d="M249.79 80.73C249.79 81.53 244.72 92.06 238.46 104.06C232.19 116.06 227.12 126.33 227.12 126.86C227.12 127.39 231.79 127.66 237.52 127.39L247.79 127L276.06 70.99C291.66 40.19 286.32 50.4 286.32 49.74C286.46 49.2 281.79 48.8 276.06 48.8L265.79 48.8L260.72 58.99L249.79 80.73Z" fill="#000000" fill-opacity="1.000000" fill-rule="evenodd"/>
	<path id="path" d="M438.33 85.33L438.33 126L447 126L455.66 126L455.66 85.33L455.66 44.66L447 44.66L438.33 44.66L438.33 85.33Z" fill="#000000" fill-opacity="1.000000" fill-rule="nonzero"/>
	<path id="path" d="M735.66 47.59C719.13 56 718.06 77.73 733.4 89.19C736.73 91.59 739.66 92.13 755.66 92.66C772.73 93.33 774.46 93.59 777.26 96.39C780.06 99.19 780.2 99.59 778.33 103.06L776.2 106.66L750.6 107.06L725 107.33L725 116.13L725 124.8L753.4 124.4L781.93 124L786.86 120.13C793.93 114.8 797.53 106.26 796.46 97.46C795.66 90 793.26 86.13 785.8 80.13C781 76.13 780.6 76.13 761.93 75.33C743.13 74.66 743.13 74.66 741.13 71.06C739.26 67.86 739.26 67.33 741.53 64.79C743.93 62.13 745.53 62 768.6 62L793 62L793 53.33L793 44.66L767.26 44.66C743.26 44.66 741.13 44.79 735.66 47.59Z" fill="#000000" fill-opacity="1.000000" fill-rule="nonzero"/>
</svg>
